<?xml version="1.0" encoding="UTF-8" standalone="no"?>
<!-- Generator: Adobe Illustrator 18.1.1, SVG Export Plug-In . SVG Version: 6.00 Build 0)  -->
<svg id="Слой_1" xmlns="http://www.w3.org/2000/svg" xml:space="preserve" viewBox="208 269.8 172 234" version="1.1" y="0px" x="0px" xmlns:xlink="http://www.w3.org/1999/xlink" enable-background="new 208 269.8 172 234">
	<path d="m256.8 344.6l26.4-27m-43.6 14.9l17.1 12.1m3.3-25.3l-3.3 25.3m-48.6-23l31.5 10.9m-17.7 10.2l17.8-10.3m17.1 12.2l-34.9-1.9m-13.8-21.1l13.8 21.1m5-37.2l33.1 13.9m-20.4 13.1l-12.8-27m33.2 13.8l-20.4 13.1m-12.7-26.9l-18.8 16.1m51.9-2.3l21.4-29m1.7 27.3l-1.8-27.3m-21.3 29l23.1-1.8m-23.1 1.8l-12.4-29.1-20.8 15.3m54.6-15.2l-33.8-0.1m63.7 46l-6.1-8.4m-5.1 11l5.1-11m6.1 8.4l-11.2 2.6m5.2-11l-16.5 8.3m11.3 2.7l-11.4-2.8m13.8 25.5l-2.3-22.7m-16 12.4l15.9-12.4m-11.3-2.8l-4.6 15.2m18.3 10.3l-18-10.5m43.8-31l1.4 18.5m11-12.8l-11 12.8m-1.4-18.5l12.4 5.7m-11 12.8l-9.1-6.9m7.7-11.6l-7.8 11.6m-10.7 15.5l17 3.4m6.1 24.6l-15.5-6m9.4-18.6l-9.4 18.6m15.5 6l-6.1-24.6m21.7-5.4l-15.6 30m-6.1-24.6l21.8-5.4m0.3-9.6l-22.1 15m21.7-5.4l0.4-9.6m-39.1 11.6l7.6 22m0.5 14.5l-0.5-14.5m15.5 6l-15 8.5m26 3.4l-26-3.4m15-8.5l11 11.9m-42.4-5.1l9.9 8m-10.9 1.4l10.9-1.4m-8.3-1.2l-1.6-6.8m-1 9.4l2.6-2.6m62.3-29.4l-6.6 9.3m11.9-1.3l-11.9 1.3m6.6-5v-4.3m5.3 8l-5.3-3.7m-12.6 29.9l18-1.1m-11.5-7.9l-6.6 9m18-1.1l-11.4-7.9m5.9 19.7l5.5-11.8m-17.9 1.1l12.4 10.6m-34.6 96.4l14.9 2.3m-5.7-16.6l5.6 16.6m-14.8-2.3l9.3-14.4m13.8-7.9l-8.3 24.6m-5.9-16.1l14.2-8.5m-11-20.5l-2.9 28.5-26.5-21.2m40.4 13.2l-11.1-19.9m-29.3 6.7l29.3-6.8m18.2-8.6l-1.9 12.4m10.7-10l-8.9-2.4m-1.8 12.4l10.8-10m-8.9-2.4l-10.6 9.6m8.7 2.8l-8.8-2.8m-29.8-47l15.4-17.8-17.4 3.9m-0.1 0.1l2.1 13.8m21.2-1.3l-21.3 1.3m15.4-17.7l5.9 16.4m-23.3-12.5l-9.9 21.6m12-7.8l-11.9 7.8m14.8 8.9l18.3-18m-21.2 1.3l2.9 16.7m-14.9-8.9l14.9 8.9m-4.7 15.3l4.7-15.3m33.7-1.9l-33.7 1.9m16.7 23l-17.5-23.4m34.5-1.5l-16.9 24.9m1.5-41l15.4 16.1m8.9-4.8l-24.3-11.2m15.4 16l8.9-4.8m7.2 8.6l-16.1-3.8m8.9-4.8l7.2 8.6m-33.1 21.1l-21.4-7.7m-10.2-24.2l10.2 24.2" stroke="#000" stroke-linecap="round" stroke-miterlimit="22.926" stroke-width=".2835" fill="none"/>
<polygon id="_x3C_Фрагмент_x3E_" points="208.1 503.8 208.1 270.8 380 269.8 380 502.8" fill="none"/>
</svg>
