<?xml version="1.0" encoding="utf-8"?>
<!-- Generator: Adobe Illustrator 18.1.1, SVG Export Plug-In . SVG Version: 6.00 Build 0)  -->
<svg version="1.1" id="Слой_1" xmlns="http://www.w3.org/2000/svg" xmlns:xlink="http://www.w3.org/1999/xlink" x="0px" y="0px"
	 viewBox="208 269.8 172 234" enable-background="new 208 269.8 172 234" xml:space="preserve">
<g>
	<path fill="none" stroke="#000000" stroke-width="0.2835" stroke-linecap="round" stroke-miterlimit="22.9256" d="M256.8,344.6
		l26.4-27 M239.6,332.5l17.1,12.1 M260,319.3l-3.3,25.3 M208.1,321.6l31.5,10.9 M221.9,342.7l17.8-10.3 M256.8,344.6l-34.9-1.9
		 M208.1,321.6l13.8,21.1 M226.9,305.5l33.1,13.9 M239.6,332.5l-12.8-27 M260,319.3l-20.4,13.1 M226.9,305.5l-18.8,16.1 M260,319.3
		l21.4-29 M283.1,317.6l-1.8-27.3 M260,319.3l23.1-1.8 M260,319.3l-12.4-29.1l-20.8,15.3 M281.4,290.3l-33.8-0.1 M311.3,336.2
		l-6.1-8.4 M300.1,338.8l5.1-11 M311.3,336.2l-11.2,2.6 M305.3,327.8l-16.5,8.3 M300.1,338.8l-11.4-2.8 M302.5,361.5l-2.3-22.7
		 M284.2,351.2l15.9-12.4 M288.8,336l-4.6,15.2 M302.5,361.5L284.5,351 M328.3,320l1.4,18.5 M340.7,325.7l-11,12.8 M328.3,320
		l12.4,5.7 M329.7,338.5l-9.1-6.9 M328.3,320l-7.8,11.6 M309.8,347.1l17,3.4 M332.9,375.1l-15.5-6 M326.8,350.5l-9.4,18.6
		 M332.9,375.1l-6.1-24.6 M348.5,345.1l-15.6,30 M326.8,350.5l21.8-5.4 M348.9,335.5l-22.1,15 M348.5,345.1l0.4-9.6 M309.8,347.1
		l7.6,22 M317.9,383.6l-0.5-14.5 M332.9,375.1l-15,8.5 M343.9,387l-26-3.4 M332.9,375.1l11,11.9 M301.5,381.9l9.9,8 M300.5,391.3
		l10.9-1.4 M303.1,388.7l-1.6-6.8 M300.5,391.3l2.6-2.6 M365.4,359.3l-6.6,9.3 M370.7,367.3l-11.9,1.3 M365.4,363.6v-4.3
		 M370.7,367.3l-5.3-3.7 M352.8,393.5l18-1.1 M359.3,384.5l-6.6,9 M370.7,392.4l-11.4-7.9 M365.2,404.2l5.5-11.8 M352.8,393.5
		l12.4,10.6 M330.6,500.5l14.9,2.3 M339.8,486.2l5.6,16.6 M330.6,500.5l9.3-14.4 M353.7,478.2l-8.3,24.6 M339.5,486.7l14.2-8.5
		 M342.7,457.7l-2.9,28.5L313.3,465 M353.7,478.2l-11.1-19.9 M313.3,465l29.3-6.8 M360.8,449.6l-1.9,12.4 M369.6,452l-8.9-2.4
		 M358.9,462l10.8-10 M360.8,449.6l-10.6,9.6 M358.9,462l-8.8-2.8 M320.3,412.2l15.4-17.8l-17.4,3.9 M318.2,398.4l2.1,13.8
		 M341.5,410.9l-21.3,1.3 M335.6,394.5l5.9,16.4 M318.2,398.4l-9.9,21.6 M320.3,412.2l-11.9,7.8 M323.2,428.9l18.3-18 M320.3,412.2
		l2.9,16.7 M308.3,420l14.9,8.9 M318.5,444.2l4.7-15.3 M356.9,427l-33.7,1.9 M339.9,451.9l-17.5-23.4 M356.9,427l-16.9,24.9
		 M341.5,410.9l15.4,16.1 M365.8,422.2l-24.3-11.2 M356.9,427l8.9-4.8 M373,430.8l-16.1-3.8 M365.8,422.2l7.2,8.6 M339.9,451.9
		l-21.4-7.7 M308.3,420l10.2,24.2"/>
</g>
<polygon id="_x3C_Фрагмент_x3E_" fill="none" points="208.1,503.8 208.1,270.8 380,269.8 380,502.8 "/>
</svg>
